{
  "accessors": [
    {
      "bufferView": 2,
      "componentType": 5126,
      "count": 503,
      "max": [
        7.900956153869629,
        -1.7548061805428006e-05,
        7.900601863861084
      ],
      "min": [
        -7.900955677032471,
        -1.9757667779922485,
        -7.9006028175354
      ],
      "type": "VEC3"
    },
    {
      "bufferView": 2,
      "byteOffset": 6036,
      "componentType": 5126,
      "count": 503,
      "max": [
        0.9987118244171143,
        0.9996532797813416,
        0.9985268115997314
      ],
      "min": [
        -0.9987118244171143,
        -0.9997314214706421,
        -0.9985610842704773
      ],
      "type": "VEC3"
    },
    {
      "bufferView": 1,
      "componentType": 5126,
      "count": 503,
      "max": [
        0.9122382998466492,
        0.9160057306289673
      ],
      "min": [
        0.08115771412849426,
        0.08403414487838745
      ],
      "type": "VEC2"
    },
    {
      "bufferView": 0,
      "componentType": 5125,
      "count": 3006,
      "type": "SCALAR"
    },
    {
      "bufferView": 2,
      "byteOffset": 12072,
      "componentType": 5126,
      "count": 164,
      "max": [
        0.03265377879142761,
        0.0010000000474974513,
        -0.0
      ],
      "min": [
        0.0034714043140411377,
        -0.0010000000474974513,
        -0.0361175537109375
      ],
      "type": "VEC3"
    },
    {
      "bufferView": 2,
      "byteOffset": 14040,
      "componentType": 5126,
      "count": 164,
      "max": [
        1.0,
        1.0,
        0.9999939203262329
      ],
      "min": [
        -1.0,
        -1.0,
        -0.9986833333969116
      ],
      "type": "VEC3"
    },
    {
      "bufferView": 1,
      "byteOffset": 4024,
      "componentType": 5126,
      "count": 164,
      "max": [
        1.0,
        1.0
      ],
      "min": [
        0.0,
        0.0
      ],
      "type": "VEC2"
    },
    {
      "bufferView": 0,
      "byteOffset": 12024,
      "componentType": 5125,
      "count": 456,
      "type": "SCALAR"
    },
    {
      "bufferView": 2,
      "byteOffset": 16008,
      "componentType": 5126,
      "count": 18,
      "max": [
        0.02304411306977272,
        0.0010100000072270632,
        -0.004190258681774139
      ],
      "min": [
        0.011895930394530296,
        -0.0010100000072270632,
        -0.015279506333172321
      ],
      "type": "VEC3"
    },
    {
      "bufferView": 2,
      "byteOffset": 16224,
      "componentType": 5126,
      "count": 18,
      "max": [
        0.9999479651451111,
        1.0,
        0.9999181032180786
      ],
      "min": [
        -1.0,
        -1.0,
        -0.9999966621398926
      ],
      "type": "VEC3"
    },
    {
      "bufferView": 1,
      "byteOffset": 5336,
      "componentType": 5126,
      "count": 18,
      "max": [
        1.0,
        1.0
      ],
      "min": [
        0.0,
        0.0
      ],
      "type": "VEC2"
    },
    {
      "bufferView": 0,
      "byteOffset": 13848,
      "componentType": 5125,
      "count": 36,
      "type": "SCALAR"
    },
    {
      "bufferView": 2,
      "byteOffset": 16440,
      "componentType": 5126,
      "count": 18,
      "max": [
        0.03267795592546463,
        0.0010100000072270632,
        1.0013580322265625e-05
      ],
      "min": [
        0.017370985820889473,
        -0.0010100000072270632,
        -0.009635958820581436
      ],
      "type": "VEC3"
    },
    {
      "bufferView": 2,
      "byteOffset": 16656,
      "componentType": 5126,
      "count": 18,
      "max": [
        0.9239120483398438,
        1.0,
        0.9225850105285645
      ],
      "min": [
        -0.9999075531959534,
        -1.0,
        -0.9999479651451111
      ],
      "type": "VEC3"
    },
    {
      "bufferView": 1,
      "byteOffset": 5480,
      "componentType": 5126,
      "count": 18,
      "max": [
        1.0,
        1.0
      ],
      "min": [
        0.0,
        0.0
      ],
      "type": "VEC2"
    },
    {
      "bufferView": 0,
      "byteOffset": 13992,
      "componentType": 5125,
      "count": 36,
      "type": "SCALAR"
    }
  ],
  "asset": {
    "extras": {
      "author": "hugo.esparza3 (https://sketchfab.com/hugo.esparza3)",
      "license": "CC-BY-4.0 (http://creativecommons.org/licenses/by/4.0/)",
      "source": "https://sketchfab.com/3d-models/flutter-c3a57c41d5c8403899a8f140a47b88ce",
      "title": "Flutter"
    },
    "generator": "Sketchfab-16.67.0",
    "version": "2.0"
  },
  "bufferViews": [
    {
      "buffer": 0,
      "byteLength": 14136,
      "name": "floatBufferViews",
      "target": 34963
    },
    {
      "buffer": 0,
      "byteLength": 5624,
      "byteOffset": 14136,
      "byteStride": 8,
      "name": "floatBufferViews",
      "target": 34962
    },
    {
      "buffer": 0,
      "byteLength": 16872,
      "byteOffset": 19760,
      "byteStride": 12,
      "name": "floatBufferViews",
      "target": 34962
    }
  ],
  "buffers": [
    {
      "byteLength": 36632,
      "uri": "flutter.bin"
    }
  ],
  "extensionsUsed": [
    "KHR_materials_specular"
  ],
  "materials": [
    {
      "doubleSided": true,
      "extensions": {
        "KHR_materials_specular": {
          "specularColorFactor": [
            1.0,
            1.0,
            1.0
          ],
          "specularFactor": 1.0
        }
      },
      "name": "back",
      "pbrMetallicRoughness": {
        "baseColorFactor": [
          0.863152,
          0.863158,
          0.863158,
          1.0
        ],
        "metallicFactor": 0.0,
        "roughnessFactor": 0.048634
      }
    },
    {
      "doubleSided": true,
      "extensions": {
        "KHR_materials_specular": {
          "specularColorFactor": [
            1.0,
            1.0,
            1.0
          ],
          "specularFactor": 1.0
        }
      },
      "name": "SVGMat.026",
      "pbrMetallicRoughness": {
        "baseColorFactor": [
          0.0497055,
          0.467784,
          0.651406,
          1.0
        ],
        "metallicFactor": 0.0,
        "roughnessFactor": 0.048634
      }
    },
    {
      "doubleSided": true,
      "extensions": {
        "KHR_materials_specular": {
          "specularColorFactor": [
            1.0,
            1.0,
            1.0
          ],
          "specularFactor": 1.0
        }
      },
      "name": "SVGMat.027",
      "pbrMetallicRoughness": {
        "baseColorFactor": [
          0.0202877,
          0.401978,
          0.610496,
          1.0
        ],
        "metallicFactor": 0.0,
        "roughnessFactor": 0.048634
      }
    },
    {
      "doubleSided": true,
      "extensions": {
        "KHR_materials_specular": {
          "specularColorFactor": [
            1.0,
            1.0,
            1.0
          ],
          "specularFactor": 1.0
        }
      },
      "name": "SVGMat.028",
      "pbrMetallicRoughness": {
        "baseColorFactor": [
          0.00972088,
          0.09989870000000001,
          0.323143,
          1.0
        ],
        "metallicFactor": 0.0,
        "roughnessFactor": 0.048634
      }
    }
  ],
  "meshes": [
    {
      "name": "Object_0",
      "primitives": [
        {
          "attributes": {
            "NORMAL": 1,
            "POSITION": 0,
            "TEXCOORD_0": 2
          },
          "indices": 3,
          "material": 0,
          "mode": 4
        }
      ]
    },
    {
      "name": "Object_1",
      "primitives": [
        {
          "attributes": {
            "NORMAL": 5,
            "POSITION": 4,
            "TEXCOORD_0": 6
          },
          "indices": 7,
          "material": 1,
          "mode": 4
        }
      ]
    },
    {
      "name": "Object_2",
      "primitives": [
        {
          "attributes": {
            "NORMAL": 9,
            "POSITION": 8,
            "TEXCOORD_0": 10
          },
          "indices": 11,
          "material": 2,
          "mode": 4
        }
      ]
    },
    {
      "name": "Object_3",
      "primitives": [
        {
          "attributes": {
            "NORMAL": 13,
            "POSITION": 12,
            "TEXCOORD_0": 14
          },
          "indices": 15,
          "material": 3,
          "mode": 4
        }
      ]
    }
  ],
  "nodes": [
    {
      "children": [
        1
      ],
      "matrix": [
        1.0,
        0.0,
        0.0,
        0.0,
        0.0,
        2.220446049250313e-16,
        -1.0,
        0.0,
        0.0,
        1.0,
        2.220446049250313e-16,
        0.0,
        0.0,
        0.0,
        0.0,
        1.0
      ],
      "name": "Sketchfab_model"
    },
    {
      "children": [
        2
      ],
      "name": "root"
    },
    {
      "children": [
        3,
        6,
        8,
        10
      ],
      "matrix": [
        1.0,
        0.0,
        0.0,
        0.0,
        0.0,
        2.220446049250313e-16,
        1.0,
        0.0,
        0.0,
        -1.0,
        2.220446049250313e-16,
        0.0,
        0.0,
        0.0,
        0.0,
        1.0
      ],
      "name": "GLTF_SceneRootNode"
    },
    {
      "children": [
        4
      ],
      "matrix": [
        0.009999999776482582,
        0.0,
        0.0,
        0.0,
        0.0,
        0.0,
        0.009999999776482582,
        0.0,
        0.0,
        -0.009999999776482582,
        0.0,
        0.0,
        0.0,
        0.0,
        0.0,
        1.0
      ],
      "name": "Scene_3"
    },
    {
      "children": [
        5
      ],
      "name": "back_2"
    },
    {
      "mesh": 0,
      "name": "Object_5"
    },
    {
      "children": [
        7
      ],
      "matrix": [
        2.654937982559204,
        0.0,
        0.0,
        0.0,
        0.0,
        -0.037855003856050354,
        2.654668332559029,
        0.0,
        0.0,
        -2.654668332559029,
        -0.037855003856050354,
        0.0,
        -0.05237693339586258,
        -0.04815426468849182,
        0.0027004918083548546,
        1.0
      ],
      "name": "path1_4"
    },
    {
      "mesh": 1,
      "name": "Object_7"
    },
    {
      "children": [
        9
      ],
      "matrix": [
        2.654937982559204,
        0.0,
        0.0,
        0.0,
        0.0,
        -0.037855003856050354,
        2.654668332559029,
        0.0,
        0.0,
        -2.654668332559029,
        -0.037855003856050354,
        0.0,
        -0.05237693339586258,
        -0.04815426468849182,
        0.0027004918083548546,
        1.0
      ],
      "name": "path2_5"
    },
    {
      "mesh": 2,
      "name": "Object_9"
    },
    {
      "children": [
        11
      ],
      "matrix": [
        2.654937982559204,
        0.0,
        0.0,
        0.0,
        0.0,
        -0.037855003856050354,
        2.654668332559029,
        0.0,
        0.0,
        -2.654668332559029,
        -0.037855003856050354,
        0.0,
        -0.05237693339586258,
        -0.04815426468849182,
        0.0027004918083548546,
        1.0
      ],
      "name": "path3_6"
    },
    {
      "mesh": 3,
      "name": "Object_11"
    }
  ],
  "scene": 0,
  "scenes": [
    {
      "name": "Sketchfab_Scene",
      "nodes": [
        0
      ]
    }
  ]
}
