<svg width="87" height="87" viewBox="0 0 87 87" fill="none" xmlns="http://www.w3.org/2000/svg">
<path d="M73.5805 0H13.4196C6.00814 0 0 6.00815 0 13.4196V73.5804C0 80.9919 6.00814 87 13.4196 87H73.5805C80.9919 87 87 80.9919 87 73.5804V13.4196C87 6.00815 80.9919 0 73.5805 0Z" fill="#EA0029"/>
<path d="M73.5924 0H13.4254C6.01588 0 0.00585938 6.01003 0.00585938 13.4196V73.5865C0.00585938 76.4946 0.932806 79.1845 2.50196 81.3777L81.3836 2.4961C79.1843 0.92695 76.5004 0 73.5924 0Z" fill="#F05050"/>
<path d="M44.4477 49.4337C44.4477 47.0033 44.4477 44.5729 44.4477 42.1326C44.4477 40.228 43.6569 38.8293 42.1144 37.7282C37.8385 34.6729 33.6015 31.5581 29.3549 28.4631C28.4958 27.8381 28.1931 26.5386 28.7691 25.6061C29.6575 24.1777 30.624 22.7988 31.5612 21.3902C31.7174 21.1521 31.8833 20.914 32.0395 20.6759C32.967 19.2574 34.3337 18.9995 35.7005 19.9816C37.2332 21.0926 38.7561 22.1937 40.2889 23.3047C43.5593 25.6557 46.8004 28.0464 50.1001 30.3478C52.7946 32.2326 54.2883 34.8415 54.7764 38.0655C54.9423 39.1368 54.8935 40.2479 54.9131 41.339C54.9326 42.1128 54.9131 42.8865 54.9131 43.6603C54.9131 47.8961 54.8838 52.1319 54.9326 56.3577C54.9521 57.935 54.9326 59.4924 54.5226 61.0201C53.5951 64.4523 51.5157 66.972 48.5382 68.7576C45.1603 70.7812 41.4799 71.5153 37.6042 71.307C34.3337 71.1284 31.2488 70.2257 28.4958 68.3608C25.4499 66.2974 23.6145 63.4504 23.1362 59.7503C23.0971 59.4825 23.0874 59.2047 23.1166 58.9468C23.224 57.8358 23.7121 57.3993 24.8153 57.3894C27.0704 57.3894 29.3158 57.3894 31.571 57.3894C33.0939 57.3894 33.6504 57.8953 33.953 59.423C34.2166 60.6927 34.9585 61.6351 36.0617 62.27C37.4089 63.0437 38.8538 63.2818 40.3767 62.9544C42.3878 62.518 43.5983 61.1986 44.0962 59.2246C44.311 58.3814 44.4184 57.4886 44.4379 56.6157C44.4867 54.225 44.4574 51.8244 44.4574 49.4237C44.4574 49.4237 44.4477 49.4237 44.4379 49.4237L44.4477 49.4337Z" fill="white"/>
<path d="M59.1722 28.9346C54.7603 28.9247 51.2029 25.3842 51.2227 21.0282C51.2426 16.5628 54.7702 13.0322 59.2418 13.0322C63.5445 13.0322 67.1515 16.6722 67.1416 21.0282C67.1317 25.4041 63.5643 28.9446 59.1822 28.9346H59.1722Z" fill="#FFC629"/>
</svg>
