<svg width="141" height="43" viewBox="0 0 141 43" fill="none" xmlns="http://www.w3.org/2000/svg">
<mask id="mask0_0_327" style="mask-type:luminance" maskUnits="userSpaceOnUse" x="112" y="0" width="29" height="32">
<path d="M132.811 0V5.34902C132.811 5.34902 125.151 5.34486 121.075 5.35179C120.709 5.35179 120.35 5.42243 120.015 5.55123C118.796 6.01384 118.03 7.23129 118.03 8.53461C118.03 9.94596 118.03 11.1911 118.03 11.1911H132.806V16.3448L118.03 16.3545V31.0913H112.687C112.687 31.0913 112.712 14.7867 112.712 8.08724C112.712 3.49168 115.712 0.664818 119.493 0.123268C120.066 0.0415512 120.651 0.00831023 121.231 0.00692519C125.242 -0.00277008 132.811 0.00138504 132.811 0.00138504V0ZM135.487 31.0913H140.836V8.85455H135.487V31.0913ZM135.487 5.34902H140.836V0H135.487V5.34902Z" fill="white"/>
</mask>
<g mask="url(#mask0_0_327)">
<path d="M142.721 -0.00417511H111.614V31.1024H142.721V-0.00417511Z" fill="url(#paint0_linear_0_327)"/>
</g>
<mask id="mask1_0_327" style="mask-type:luminance" maskUnits="userSpaceOnUse" x="41" y="0" width="69" height="43">
<path d="M81.9431 19.9736C84.2506 21.9778 85.7146 24.9307 85.7146 28.2202V31.0913H80.3614V28.2202C80.3614 25.1509 77.8655 22.6523 74.7963 22.6509C74.7963 22.6509 74.7935 22.6509 74.7921 22.6509H71.6135V31.0913H66.2603V0H71.6135V17.2964H74.7921C77.8628 17.2964 80.3614 14.7977 80.3614 11.7271V8.85593H85.7146V11.7271C85.7146 15.0166 84.2506 17.9695 81.9431 19.9736ZM103.789 8.85593V20.6052C103.789 23.608 101.347 26.0498 98.3447 26.0498C95.342 26.0498 92.9001 23.608 92.9001 20.6052V8.85593H87.547V20.6052C87.547 26.5595 92.3904 31.403 98.3447 31.403C100.329 31.403 102.19 30.8628 103.789 29.9238V32.2021C103.789 35.2049 101.347 37.6467 98.3447 37.6467C94.7159 37.6467 92.8461 34.788 92.0705 33.137L87.4569 35.8877C89.7242 40.3656 93.7159 42.9999 98.3447 42.9999C104.299 42.9999 109.142 38.1564 109.142 32.2021V8.85593H103.789ZM64.4265 22.1468C64.4265 17.5817 61.0055 13.7604 56.4681 13.2576L49.723 12.5097C47.9016 12.3075 46.5277 10.7742 46.5277 8.94181C46.5277 6.96259 48.1385 5.35179 50.1177 5.35179H62.5526V0H50.1177C45.1869 0 41.1745 4.01246 41.1745 8.94319C41.1745 13.5083 44.5955 17.3296 49.1329 17.8324L55.8781 18.5803C57.6994 18.7825 59.0733 20.3157 59.0733 22.1482C59.0733 24.1274 57.4625 25.7382 55.4833 25.7382H42.1343V31.0913H55.4833C60.4141 31.0913 64.4265 27.0789 64.4265 22.1482V22.1468Z" fill="white"/>
</mask>
<g mask="url(#mask1_0_327)">
<path d="M111.612 -0.00417511H38.4042V43.0027H111.612V-0.00417511Z" fill="url(#paint1_linear_0_327)"/>
</g>
<mask id="mask2_0_327" style="mask-type:luminance" maskUnits="userSpaceOnUse" x="0" y="0" width="38" height="32">
<path d="M37.5983 0.00564868V31.1122H29.5733V0.00564868H37.5983ZM19.716 7.49455V31.1122H27.7409V7.49455H19.716ZM9.85732 14.9848V31.1136H17.8822V14.9848H9.85732ZM0 22.4737V31.1122H8.02491V22.4737H0Z" fill="white"/>
</mask>
<g mask="url(#mask2_0_327)">
<path d="M39.1609 0.00564868H-1.81544V31.1122H39.1609V0.00564868Z" fill="url(#paint2_linear_0_327)"/>
</g>
<defs>
<linearGradient id="paint0_linear_0_327" x1="127.168" y1="0.130174" x2="127.168" y2="32.2631" gradientUnits="userSpaceOnUse">
<stop stop-color="#EACD1A"/>
<stop offset="1" stop-color="#FAA61A"/>
</linearGradient>
<linearGradient id="paint1_linear_0_327" x1="75.008" y1="42.9251" x2="75.008" y2="18.1855" gradientUnits="userSpaceOnUse">
<stop stop-color="#811A19"/>
<stop offset="1" stop-color="#ED1B2F"/>
</linearGradient>
<linearGradient id="paint2_linear_0_327" x1="18.6721" y1="0.139997" x2="18.6721" y2="32.2729" gradientUnits="userSpaceOnUse">
<stop stop-color="#EACD1A"/>
<stop offset="1" stop-color="#FAA61A"/>
</linearGradient>
</defs>
</svg>
